<?xml version="1.0" encoding="UTF-8"?>
<svg width="21px" height="17px" viewBox="0 0 21 17" version="1.1" xmlns="http://www.w3.org/2000/svg" xmlns:xlink="http://www.w3.org/1999/xlink">
    <!-- Generator: Sketch 54.1 (76490) - https://sketchapp.com -->
    <title>like</title>
    <desc>Created with Sketch.</desc>
    <defs>
        <path d="M15.328125,4.25 C16.9843833,4.25 18.3437447,4.73437016 19.40625,5.703125 C20.4687553,6.67187984 21,7.99999156 21,9.6875 C21,11.4062586 20.3593814,13.0468672 19.078125,14.609375 C17.8281188,16.1406327 16.2656344,17.5156189 14.390625,18.734375 C13.6406213,19.2343775 12.9375033,19.6484359 12.28125,19.9765625 C11.6249967,20.3046891 11.1562514,20.5156245 10.875,20.609375 L10.5,20.75 C9.62499563,20.5312489 8.32813359,19.8593806 6.609375,18.734375 C4.73436563,17.5156189 3.17188125,16.1406327 1.921875,14.609375 C0.640618594,13.0468672 0,11.4062586 0,9.6875 C0,7.99999156 0.531244687,6.67187984 1.59375,5.703125 C2.65625531,4.73437016 4.01561672,4.25 5.671875,4.25 C6.64062984,4.25 7.57030805,4.46874781 8.4609375,4.90625 C9.35156695,5.34375219 10.0312477,5.95312109 10.5,6.734375 C10.9687523,5.95312109 11.648433,5.34375219 12.5390625,4.90625 C13.429692,4.46874781 14.3593702,4.25 15.328125,4.25 Z" id="path-1"></path>
    </defs>
    <g id="Page-1" stroke="none" stroke-width="1" fill="none" fill-rule="evenodd">
        <g id="like" transform="translate(0.000000, -4.000000)" fill-rule="nonzero">
            <g>
                <use fill="#000000" xlink:href="#path-1"></use>
                <use fill="#FFFFFF" xlink:href="#path-1"></use>
            </g>
        </g>
    </g>
</svg>