<?xml version="1.0" encoding="UTF-8"?>
<svg width="192px" height="52px" viewBox="0 0 192 52" version="1.1" xmlns="http://www.w3.org/2000/svg" xmlns:xlink="http://www.w3.org/1999/xlink">
    <!-- Generator: Sketch 54.1 (76490) - https://sketchapp.com -->
    <title>Shape</title>
    <desc>Created with Sketch.</desc>
    <g id="Page-4" stroke="none" stroke-width="1" fill="none" fill-rule="evenodd">
        <g id="Desktop-HD-Copy" transform="translate(-64.000000, -75.000000)" fill="#FFFFFF" fill-rule="nonzero">
            <path d="M98.3504256,107.44271 L98.3014584,107.34406 C105.768942,105.642354 107.237955,100.093312 107.237955,93.9770351 C107.237955,90.5736228 106.013778,88.6252925 103.565422,88.6252925 C101.337419,88.6252925 100.015307,90.6722724 99.256317,95.5554293 L96.6610604,112.523166 C94.7513432,125.125657 81.7995434,127 76.0214248,127 C68.4315232,127 64,123.7199 64,117.258349 C64,111.487345 68.4315232,107.886633 73.8668721,107.886633 C78.6656485,107.886633 83.7337441,110.698148 83.7337441,115.679955 C83.7337441,118.984717 81.2364217,121.746907 77.3680202,121.746907 C74.5768951,121.746907 72.1775069,119.477965 73.0589148,116.469152 C75.4093359,116.419827 77.270086,114.446834 77.270086,111.857281 C77.270086,109.267728 75.4093359,108.05927 73.3527174,108.05927 C69.2149969,108.05927 66.0076514,111.980593 66.0076514,117.159699 C66.0076514,122.733403 68.8967107,126.827363 75.458303,126.827363 C81.5791914,126.827363 85.4231093,122.338805 86.7207376,113.805611 L89.2670272,97.0351738 C90.2708529,90.524298 98.2280078,88.9212414 102.096409,88.7239421 L102.096409,88.6746173 C98.8890637,88.7979294 95.7551689,87.4661593 92.7926589,86.2330389 C89.7811818,84.9999185 86.7207376,83.7421356 83.5868428,83.7421356 C80.9181355,83.7421356 78.5432308,85.2465426 78.5432308,87.8607578 C78.5432308,90.1790242 80.2570795,90.9682213 81.7750598,90.9682213 C83.0971717,90.9682213 84.4682507,90.3269987 85.49656,88.9952286 C91.2257115,91.6094439 87.5042114,98.860192 81.7750598,98.860192 C78.1514939,98.860192 74.527928,96.0980023 74.527928,91.7574184 C74.527928,87.1702104 78.2983952,83.5694988 83.5868428,83.5694988 C89.8056654,83.5694988 95.7306853,88.5019805 101.557771,88.5019805 C102.635047,88.5019805 103.124718,87.8607578 103.124718,87.26886 C103.124718,86.479663 102.292278,85.6904659 100.921199,86.5289878 C99.7949552,84.4080207 101.41087,82.6816521 103.173686,82.6816521 C104.495797,82.6816521 105.866876,83.4708491 105.866876,85.3451922 C105.866876,87.2195352 103.908192,88.1073819 102.977817,88.4033308 L102.977817,88.4526556 C103.810258,88.230694 104.740633,88.1073819 105.622041,88.1073819 C112.722271,88.1073819 117.667949,90.0803746 117.667949,95.7034037 C117.667949,103.077464 106.160679,105.543705 98.325942,107.393385 C108.535584,105.173769 112.697788,108.207245 114.950275,114.224872 C116.713091,118.886068 117.300696,124.95302 121.438417,125.643568 L121.413933,125.76688 C120.116305,126.013504 118.867643,126.136816 117.643466,126.136816 C108.266265,126.136816 106.087228,122.240155 104.642699,116.370502 C103.834742,113.065739 102.58608,108.281232 98.3504256,107.44271 Z M135.051264,96.443276 C142.078043,96.443276 146.950271,101.005822 146.950271,107.54136 C146.950271,115.753942 139.629688,123.029352 130.864576,123.029352 C123.886763,123.029352 118.990052,118.442144 118.990052,111.931268 C118.990052,103.373413 126.261668,96.443276 135.051264,96.443276 Z M130.889059,122.856715 C136.299925,122.856715 138.013774,107.516697 138.013774,101.721031 C138.013774,98.7862048 137.328234,96.6159128 135.02678,96.6159128 C129.640398,96.6159128 127.926549,112.523166 127.926549,117.825584 C127.926549,120.735748 128.734507,122.856715 130.889059,122.856715 Z M156.866105,123.029352 C152.924253,123.029352 147.195101,122.092181 147.195101,117.850246 C147.195101,115.384006 149.055851,113.115064 151.749042,113.115064 C153.658759,113.115064 155.568477,114.29886 155.274674,116.715776 C153.854628,117.209024 152.97322,118.540794 152.97322,119.971214 C152.97322,121.475621 153.756694,122.856715 157.355776,122.856715 C160.342769,122.856715 165.019128,121.919544 165.019128,119.00938 C165.019128,113.756287 149.741391,114.274197 149.741391,105.913641 C149.741391,99.1068161 157.184391,96.443276 163.599082,96.443276 C167.394033,96.443276 172.657997,97.3804475 172.657997,101.129134 C172.657997,103.34875 170.993115,105.371068 168.593727,105.371068 C166.928845,105.371068 165.361898,104.236597 165.606733,102.066305 C166.68401,101.671707 167.614385,100.635885 167.614385,99.402765 C167.614385,97.7257212 165.973987,96.6159128 163.109411,96.6159128 C159.363427,96.6159128 157.282325,98.4902559 157.282325,100.512573 C157.282325,105.962966 172.315227,104.211935 172.315227,113.238376 C172.315227,119.823239 164.162204,123.029352 156.866105,123.029352 Z M184.385615,106.850812 C191.485845,107.738659 193.469013,103.54605 193.469013,100.043988 C193.469013,98.1203197 192.685539,96.6159128 190.751339,96.6159128 C186.41775,96.6159128 183.846977,103.669362 183.846977,108.725155 C183.846977,113.58365 186.026013,117.973559 191.143076,117.973559 C193.395562,117.973559 196.284622,117.011725 198.586076,114.175548 L198.708494,114.249535 C195.623566,119.379316 190.433052,123.029352 184.752868,123.029352 C178.827848,123.029352 174.616677,119.083367 174.616677,112.473841 C174.616677,104.039298 181.765875,96.443276 191.069625,96.443276 C194.889059,96.443276 200.471309,97.3804475 200.471309,101.967655 C200.471309,105.617692 196.40704,110.10625 184.361131,106.900137 L184.385615,106.850812 Z M214.475898,88.1073819 L210.656463,112.177893 C210.117825,115.63063 208.673295,122.018194 210.558529,122.585429 L210.460595,122.684079 C209.358835,122.90604 208.183624,123.078677 207.081864,123.078677 C203.458299,123.078677 200.422338,121.426296 201.40168,115.334681 L205.906654,87.0715608 C206.127006,85.6411411 205.416983,85.0985681 203.825552,85.7151283 L203.752101,85.6411411 C205.46595,84.8026192 208.893647,83.7174732 211.244069,83.7174732 C214.035194,83.7174732 215.014536,84.7532944 214.475898,88.1073819 Z M227.648047,88.1073819 L223.828613,112.177893 C223.289975,115.63063 221.845445,122.018194 223.730679,122.585429 L223.632744,122.684079 C222.530985,122.90604 221.355774,123.078677 220.254014,123.078677 C216.630448,123.078677 213.594488,121.426296 214.57383,115.334681 L219.078803,87.0715608 C219.299155,85.6411411 218.589132,85.0985681 216.997701,85.7151283 L216.924251,85.6411411 C218.6381,84.8026192 222.065797,83.7174732 224.416218,83.7174732 C227.207343,83.7174732 228.186685,84.7532944 227.648047,88.1073819 Z M244.786532,96.7392249 C239.963272,96.7392249 236.657993,108.552519 236.657993,116.469152 C236.657993,118.491469 237.319049,120.637099 238.592193,120.637099 C241.579187,120.637099 244.811016,112.942427 246.084161,105.691679 L246.622799,102.682865 C247.087987,100.117975 247.381789,96.7392249 244.786532,96.7392249 Z M256,96.6405752 L253.404743,111.931268 C252.670237,116.173203 251.788829,122.659416 254.310635,122.585429 L254.237184,122.684079 C253.110941,122.930703 251.93573,123.029352 250.76052,123.029352 C246.598315,123.029352 242.999233,121.278321 244.394796,115.088057 L246.108644,107.467373 L246.01071,107.44271 C242.925782,119.72459 239.155315,123.029352 234.748276,123.029352 C229.606729,123.029352 227.794946,118.442144 227.794946,113.904261 C227.794946,106.061615 235.066562,96.443276 243.293036,96.443276 C247.210404,96.443276 250.4912,98.6135679 252.988523,98.6135679 C254.188217,98.6135679 255.192043,98.1203197 256,96.6405752 Z M131.349517,92.0102217 L131.449438,80.9465856 C131.450926,80.7818368 131.584719,80.6494965 131.748273,80.6509953 C131.843613,80.651869 131.932704,80.6989252 131.987637,80.7774224 L133.849353,83.4377581 C133.94359,83.5724194 134.128356,83.604632 134.262041,83.5097069 C134.29971,83.4829595 134.330662,83.4477255 134.352434,83.4068083 L138.741919,75.1574476 C138.819186,75.0122354 138.998688,74.9576128 139.142847,75.0354447 C139.214836,75.0743114 139.267693,75.1414003 139.288919,75.2208468 L141.730034,84.3574159 C141.772541,84.5165105 141.935036,84.6107716 142.092977,84.5679541 C142.130314,84.5578321 142.165322,84.540443 142.196025,84.5167686 L144.986077,82.3654179 C145.115954,82.2652726 145.301835,82.2901439 145.401254,82.4209695 C145.457758,82.4953234 145.476325,82.5920875 145.451397,82.6822958 L142.578456,93.0788087 C142.534592,93.2375395 142.37129,93.3303981 142.213711,93.2862142 C142.210771,93.28539 142.207845,93.2845201 142.204932,93.2836048 C140.084403,92.6172569 138.446349,92.212621 137.290769,92.0696971 C136.1321,91.9263911 134.261821,92.0062413 131.679933,92.3092477 C131.51747,92.3283169 131.370423,92.2111086 131.351494,92.0474584 C131.350065,92.0350998 131.349405,92.0226633 131.349517,92.0102217 Z" id="Shape"></path>
        </g>
    </g>
</svg>