<svg xmlns="http://www.w3.org/2000/svg" width="549" height="150" viewBox="0 0 549 150">
  <path fill="#FFF" d="M580.210016,531.739993 L580.070016,531.459993 C601.42002,526.629992 605.62002,510.879989 605.62002,493.519987 C605.62002,483.859985 602.12002,478.329984 595.120019,478.329984 C588.750017,478.329984 584.970017,484.139985 582.800017,497.999987 L575.380015,546.159995 C569.920014,581.930001 532.890008,587.250002 516.370006,587.250002 C494.670002,587.250002 482,577.94 482,559.599997 C482,543.219995 494.670002,532.999993 510.210005,532.999993 C523.930007,532.999993 538.420009,540.979994 538.420009,555.119997 C538.420009,564.499998 531.280008,572.34 520.220006,572.34 C512.240005,572.34 505.380004,565.899999 507.900004,557.359997 C514.620005,557.219997 519.940006,551.619996 519.940006,544.269995 C519.940006,536.919994 514.620005,533.489993 508.740004,533.489993 C496.910002,533.489993 487.740001,544.619995 487.740001,559.319997 C487.740001,575.14 496.000002,586.760002 514.760005,586.760002 C532.260008,586.760002 543.25001,574.02 546.960011,549.799996 L554.240012,502.199988 C557.110012,483.719985 579.860016,479.169984 590.920018,478.609984 L590.920018,478.469984 C581.750016,478.819984 572.790015,475.039984 564.320013,471.539983 C555.710012,468.039982 546.960011,464.469982 538.000009,464.469982 C530.370008,464.469982 523.580007,468.739983 523.580007,476.159984 C523.580007,482.739985 528.480008,484.979985 532.820008,484.979985 C536.600009,484.979985 540.52001,483.159985 543.46001,479.379984 C559.840013,486.799986 549.200011,507.379989 532.820008,507.379989 C522.460007,507.379989 512.100005,499.539988 512.100005,487.219986 C512.100005,474.199983 522.880007,463.979982 538.000009,463.979982 C555.780012,463.979982 572.720015,477.979984 589.380018,477.979984 C592.460018,477.979984 593.860018,476.159984 593.860018,474.479984 C593.860018,472.239983 591.480018,469.999983 587.560017,472.379983 C584.340017,466.359982 588.960018,461.459981 594.000018,461.459981 C597.780019,461.459981 601.70002,463.699982 601.70002,469.019983 C601.70002,474.339984 596.100019,476.859984 593.440018,477.699984 L593.440018,477.839984 C595.820019,477.209984 598.480019,476.859984 601.00002,476.859984 C621.300023,476.859984 635.440025,482.459985 635.440025,498.419987 C635.440025,519.349991 602.54002,526.349992 580.140016,531.599993 C609.330021,525.299992 621.230023,533.909993 627.670024,550.989996 C632.710025,564.219998 634.390025,581.440001 646.220027,583.400001 L646.150027,583.750001 C642.440026,584.450002 638.870026,584.800002 635.370025,584.800002 C608.560021,584.800002 602.33002,573.74 598.200019,557.079997 C595.890019,547.699996 592.320018,534.119993 580.210016,531.739993 Z M685.140008,500.519988 C705.230012,500.519988 719.160014,513.46999 719.160014,532.019993 C719.160014,555.329997 698.230011,575.98 673.170006,575.98 C653.220003,575.98 639.220001,562.959998 639.220001,544.479995 C639.220001,520.189991 660.010004,500.519988 685.140008,500.519988 Z M673.240006,575.49 C688.710009,575.49 693.61001,531.949993 693.61001,515.49999 C693.61001,507.169989 691.65001,501.009988 685.070008,501.009988 C669.670006,501.009988 664.770005,546.159995 664.770005,561.209998 C664.770005,569.469999 667.080005,575.49 673.240006,575.49 Z M747.510005,575.98 C736.240003,575.98 719.86,573.32 719.86,561.279998 C719.86,554.279997 725.180001,547.839996 732.880002,547.839996 C738.340003,547.839996 743.800004,551.199996 742.960004,558.059997 C738.900003,559.459997 736.380003,563.239998 736.380003,567.299999 C736.380003,571.569999 738.620003,575.49 748.910005,575.49 C757.450007,575.49 770.820009,572.83 770.820009,564.569998 C770.820009,549.659996 727.140002,551.129996 727.140002,527.399992 C727.140002,508.079989 748.420005,500.519988 766.760008,500.519988 C777.61001,500.519988 792.660012,503.179988 792.660012,513.81999 C792.660012,520.119991 787.900011,525.859992 781.04001,525.859992 C776.28001,525.859992 771.800009,522.639991 772.500009,516.47999 C775.580009,515.35999 778.24001,512.41999 778.24001,508.919989 C778.24001,504.159988 773.550009,501.009988 765.360008,501.009988 C754.650006,501.009988 748.700005,506.329989 748.700005,512.06999 C748.700005,527.539992 791.680012,522.569991 791.680012,548.189996 C791.680012,566.879999 768.370008,575.98 747.510005,575.98 Z M826.190005,530.059993 C846.490009,532.579993 852.16001,520.679991 852.16001,510.739989 C852.16001,505.279989 849.920009,501.009988 844.390008,501.009988 C832.000006,501.009988 824.650005,521.029991 824.650005,535.379994 C824.650005,549.169996 830.880006,561.629998 845.510009,561.629998 C851.95001,561.629998 860.210011,558.899997 866.790012,550.849996 L867.140012,551.059996 C858.320011,565.619998 843.480008,575.98 827.240006,575.98 C810.300003,575.98 798.260001,564.779998 798.260001,546.019995 C798.260001,522.079991 818.700004,500.519988 845.300009,500.519988 C856.22001,500.519988 872.180013,503.179988 872.180013,516.19999 C872.180013,526.559992 860.560011,539.299994 826.120005,530.199993 L826.190005,530.059993 Z M912.220007,476.859984 L901.300005,545.179995 C899.760005,554.979997 895.630004,573.11 901.020005,574.72 L900.740005,575 C897.590005,575.63 894.230004,576.12 891.080004,576.12 C880.720002,576.12 872.04,571.429999 874.840001,554.139997 L887.720003,473.919983 C888.350003,469.859983 886.320003,468.319983 881.770002,470.069983 L881.560002,469.859983 C886.460003,467.479982 896.260004,464.399982 902.980006,464.399982 C910.960007,464.399982 913.760007,467.339982 912.220007,476.859984 Z M949.880007,476.859984 L938.960005,545.179995 C937.420005,554.979997 933.290004,573.11 938.680005,574.72 L938.400005,575 C935.250005,575.63 931.890004,576.12 928.740004,576.12 C918.380002,576.12 909.7,571.429999 912.500001,554.139997 L925.380003,473.919983 C926.010003,469.859983 923.980003,468.319983 919.430002,470.069983 L919.220002,469.859983 C924.120003,467.479982 933.920004,464.399982 940.640006,464.399982 C948.620007,464.399982 951.420007,467.339982 949.880007,476.859984 Z M998.880009,501.359988 C985.090007,501.359988 975.640005,534.889993 975.640005,557.359997 C975.640005,563.099998 977.530005,569.189999 981.170006,569.189999 C989.710007,569.189999 998.950009,547.349995 1002.59001,526.769992 L1004.13001,518.229991 C1005.46001,510.94999 1006.30001,501.359988 998.880009,501.359988 Z M1030.94001,501.079988 L1023.52001,544.479995 C1021.42001,556.519997 1018.90001,574.93 1026.11001,574.72 L1025.90001,575 C1022.68001,575.7 1019.32001,575.98 1015.96001,575.98 C1004.06001,575.98 993.770008,571.009999 997.760009,553.439996 L1002.66001,531.809993 L1002.38001,531.739993 C993.560008,566.599999 982.780006,575.98 970.180004,575.98 C955.480002,575.98 950.300001,562.959998 950.300001,550.079996 C950.300001,527.819992 971.090004,500.519988 994.610008,500.519988 C1005.81001,500.519988 1015.19001,506.679989 1022.33001,506.679989 C1025.76001,506.679989 1028.63001,505.279989 1030.94001,501.079988 Z M670.859908,488.4098 L667.475374,456.823134 C667.425553,456.358165 667.762096,455.940845 668.227065,455.891023 C668.489059,455.862951 668.74919,455.958448 668.930788,456.149369 L675.861713,463.436107 C676.184002,463.774941 676.719948,463.788354 677.058782,463.466065 C677.142027,463.386885 677.208288,463.291591 677.253531,463.185985 L687.748975,438.687338 C687.933125,438.257492 688.430866,438.058316 688.860712,438.242466 C689.075362,438.334424 689.242505,438.510949 689.322616,438.730297 L698.53553,463.955912 C698.695954,464.395164 699.182087,464.621199 699.621339,464.460775 C699.725179,464.422851 699.820587,464.36496 699.902178,464.290369 L707.340058,457.49065 C707.685197,457.175124 708.220773,457.199129 708.5363,457.544269 C708.714088,457.738743 708.791207,458.004901 708.744927,458.264299 L703.165263,489.537927 C703.09124,489.952826 702.723349,490.250121 702.302156,490.235413 L671.672259,489.165793 C671.251065,489.151085 670.90481,488.828851 670.859908,488.4098 Z" transform="translate(-482 -438)"/>
</svg>
