<?xml version="1.0" encoding="UTF-8"?>
<svg width="20px" height="24px" viewBox="0 0 20 24" version="1.1" xmlns="http://www.w3.org/2000/svg" xmlns:xlink="http://www.w3.org/1999/xlink">
    <!-- Generator: Sketch 54.1 (76490) - https://sketchapp.com -->
    <title>Path 2 Copy</title>
    <desc>Created with Sketch.</desc>
    <g id="Page-4" stroke="none" stroke-width="1" fill="none" fill-rule="evenodd">
        <g id="iPhone-SE-Copy-13" transform="translate(-238.000000, -52.000000)" fill="#F9DE18" fill-rule="nonzero">
            <g id="Group-7" transform="translate(26.000000, 52.000000)">
                <g id="Group-6">
                    <path d="M214.301444,23.6565959 L212.171339,9.45226801 C212.138314,9.23204923 212.290065,9.02675508 212.510284,8.9937307 C212.631861,8.97549883 212.755114,9.01372915 212.845032,9.09756237 L216.278274,12.2984614 C216.441148,12.4503131 216.696284,12.4413776 216.848136,12.2785035 C216.881522,12.242694 216.908107,12.2011035 216.92659,12.1557677 L221.517259,0.895521439 C221.601326,0.689318307 221.836636,0.590307073 222.042839,0.674373656 C222.141264,0.714500145 222.219862,0.791867753 222.261538,0.889646509 L227.068719,12.1682996 C227.156031,12.37315 227.392874,12.4684343 227.597725,12.3811231 C227.640796,12.3627653 227.68034,12.3370461 227.714586,12.3051184 L231.154968,9.09756237 C231.317842,8.94571067 231.572978,8.95464613 231.72483,9.11752026 C231.808663,9.20743867 231.846893,9.33069117 231.828661,9.45226801 L229.698556,23.6565959 C229.668957,23.8539772 229.499403,24 229.299815,24 L214.700185,24 C214.500597,24 214.331043,23.8539772 214.301444,23.6565959 Z" id="Path-2-Copy"></path>
                </g>
            </g>
        </g>
    </g>
</svg>